<svg width="181" height="37" viewBox="0 0 181 37" fill="none" xmlns="http://www.w3.org/2000/svg">
<path d="M133.883 2.58477C133.934 3.10405 134.038 3.61035 134.051 4.11664C134.064 12.0097 134.077 19.9027 134.077 27.7828C134.077 29.4315 134.038 29.4056 132.403 29.4056C128.404 29.4056 124.419 29.4056 120.277 29.4056V18.2281H102.765V29.2887H88.5494V2.54582H102.726V13.0742H120.161V2.57179H133.87L133.883 2.58477Z" fill="#1F1F1F"/>
<path d="M86.3944 2.62368C86.3944 3.99977 86.3684 5.31095 86.3944 6.62213C86.4204 7.79051 85.94 8.24488 84.7327 8.2319C79.7606 8.19295 74.8015 8.2319 69.8294 8.2319C68.9856 8.2319 68.1287 8.21892 67.2849 8.2319C65.8309 8.27084 65.3376 8.95889 65.5843 10.3609C65.7271 11.1788 65.766 12.0356 65.753 12.8795C65.7401 16.1639 65.6492 19.4483 65.6752 22.7198C65.6752 23.1612 66.0646 23.8492 66.4541 24.005C67.3368 24.3426 68.3105 24.5762 69.2582 24.5892C74.464 24.6411 79.6827 24.6152 84.8885 24.6152C85.3299 24.6152 85.7713 24.6152 86.3295 24.6152V29.3925C85.5765 29.3925 84.9404 29.3925 84.2913 29.3925C77.4628 29.3925 70.6343 29.5224 63.8187 29.3406C59.8462 29.2368 56.1204 28.0554 53.1995 25.0955C52.4725 24.3685 52.1479 23.5636 52.1609 22.5251C52.2258 18.4747 52.2518 14.4373 52.2128 10.3869C52.1998 8.75118 52.9139 7.54385 54.0822 6.53126C56.5488 4.41519 59.5347 3.4026 62.6763 2.98717C70.4395 1.9616 78.2417 2.66262 86.0179 2.50684C86.3944 2.4993 86.0179 2.50684 86.3944 2.50684V2.62368Z" fill="#1F1F1F"/>
<path d="M136.414 2.54582H150.357C150.357 4.20752 150.357 2.54582 150.357 4.20752C150.331 10.1403 150.292 16.0731 150.266 21.9928C150.266 23.1093 150.889 23.9531 151.979 24.1089C153.563 24.3296 155.173 24.5892 156.77 24.6022C164.17 24.6542 171.556 24.6282 178.956 24.6282C179.436 24.6282 179.917 24.6282 180.514 24.6282V29.3536C180.111 29.3666 179.683 29.4056 179.255 29.4056C169.479 29.4056 159.704 29.4056 149.915 29.4056C145.891 29.4056 142.152 28.4449 138.946 25.9134C137.427 24.7191 136.466 23.1223 136.427 21.175C136.323 15.1254 136.31 9.07577 136.271 3.02616C136.271 2.90932 136.271 3.02616 136.271 2.54582H136.414Z" fill="#1F1F1F"/>
<path d="M32.662 34.6892C32.4413 33.9233 32.2595 33.2352 32.0388 32.5602C31.3637 30.548 29.027 29.068 26.9369 29.3147C24.8598 29.5613 23.1851 31.3139 23.0163 33.6507C22.9384 34.6762 22.5749 34.9229 21.6143 34.8839C19.7319 34.819 17.8365 34.871 15.8503 34.871C15.8503 34.4685 15.7983 34.1959 15.8503 33.9492C16.772 29.9248 13.0721 25.2124 8.07406 26.4327C5.76326 27.0039 3.2837 29.3406 3.51738 31.924C3.58229 32.6381 3.59527 33.365 3.51738 34.0791C3.49141 34.3517 3.20581 34.7671 2.95916 34.832C1.93358 35.1046 0.518539 34.0012 0.505557 32.9496C0.479593 28.8214 0.479593 24.6931 0.505557 20.5648C0.505557 19.1238 0.998873 18.5526 2.67355 18.1372C3.6472 17.9035 3.9328 17.4621 3.89386 16.4755C3.76404 13.2689 3.79 10.0624 3.67316 6.8688C3.54334 3.28577 6.5292 1.23462 9.25542 1.09181C12.2413 0.949013 15.2271 1.05287 18.226 1.00094C21.1729 0.949013 24.0679 3.0521 24.9896 5.85621C27.4951 13.4377 30.2343 20.9543 32.8956 28.4838C33.337 29.7301 33.9082 30.9244 34.2587 32.1967C34.6352 33.5728 34.2587 34.118 32.6749 34.7022L32.662 34.6892ZM6.67201 11.3476C6.67201 11.3476 6.672 11.3476 6.68499 11.3476C6.68499 13.1131 6.73691 14.8787 6.65902 16.6313C6.62007 17.6179 6.91866 17.9684 7.94424 17.9554C10.6834 17.9035 13.4356 17.9295 16.1748 17.9554C17.6807 17.9554 19.0179 18.8771 19.2256 20.2013C19.3814 21.2269 19.9136 21.3048 20.7185 21.2788C22.4062 21.2269 24.1068 21.175 25.7945 21.2269C27.1836 21.2658 27.4172 21.0581 26.9888 19.7469C26.145 17.1246 25.3012 14.5022 24.4054 11.8928C23.7174 9.89361 22.9774 7.90736 22.1985 5.9341C21.7052 4.67485 20.8743 3.63629 19.4073 3.61032C15.9411 3.55839 12.462 3.58436 8.99578 3.63629C7.67162 3.66225 6.68499 4.75274 6.67201 6.06392C6.65902 7.82947 6.67201 9.58204 6.67201 11.3476Z" fill="#F15D0B"/>
<path d="M43.4759 35.3123C41.983 35.3123 40.516 35.1695 39.0231 35.1955C38.2571 35.2085 37.8806 34.8969 37.634 34.1829C35.1674 27.2116 32.6619 20.2662 30.1693 13.3079C29.1178 10.3739 28.0792 7.42701 27.0277 4.49308C26.7291 3.66223 26.6642 2.92226 27.6119 2.44193C28.4687 2.01352 29.3125 2.29913 29.7799 3.33768C30.4809 4.86956 31.0651 6.44038 31.6493 8.0112C34.1808 14.6969 36.7382 21.3827 39.1918 28.1073C40.6718 32.1577 40.529 31.4956 44.112 31.5476C45.2414 31.5605 46.3709 31.5346 47.5003 31.6254C48.0326 31.6644 48.6817 31.8202 49.0322 32.1577C49.4865 32.6121 50.0318 33.365 49.9539 33.8973C49.8371 34.7411 49.0452 35.2993 48.0845 35.3123C46.5526 35.3383 45.0207 35.3123 43.4759 35.3123C43.4759 35.3643 43.4759 35.2604 43.4759 35.3123Z" fill="#F15D0B"/>
<ellipse cx="9.78631" cy="32.3265" rx="4.67352" ry="4.67352" fill="#F15D0B"/>
<ellipse cx="27.8003" cy="33.9427" rx="3.05726" ry="3.05726" fill="#F15D0B"/>
</svg>
