<svg width="14" height="17" viewBox="0 0 14 17" fill="none" xmlns="http://www.w3.org/2000/svg">
<path d="M7.00003 0.333328C3.14037 0.333328 0 3.33777 0 7.0303C0 10.6263 2.71266 12.9546 5.33552 15.2057C5.77368 15.582 6.20981 15.9562 6.63113 16.3353L7 16.6667L7.36887 16.3353C7.79019 15.9563 8.22636 15.582 8.66449 15.2057C11.2874 12.9545 14 10.6263 14 7.0303C14 3.33774 10.8597 0.333328 6.99997 0.333328H7.00003ZM6.99991 9.77797C5.41375 9.77797 4.12806 8.54779 4.12806 7.03046C4.12806 5.51297 5.41378 4.28295 6.99991 4.28295C8.58607 4.28295 9.87175 5.513 9.87175 7.03046C9.87175 8.54782 8.58604 9.77797 6.99991 9.77797Z" fill="#1F1F1F"/>
</svg>
