<svg width="152" height="36" viewBox="0 0 152 36" fill="none" xmlns="http://www.w3.org/2000/svg">
<path d="M44.2271 12.4127L48.6002 12.3017C48.8162 13.3007 49.734 13.7447 51.3537 13.7447C52.0555 13.7447 52.5954 13.6337 52.9734 13.4117C53.3513 13.1897 53.5673 12.8567 53.5673 12.4682C53.5673 11.9132 53.1353 11.5802 52.2715 11.3582L49.1941 10.7477C47.6824 10.4147 46.5486 9.97073 45.9007 9.41573C45.1989 8.86074 44.8749 8.02824 44.8749 6.97375C44.8749 6.19676 45.0909 5.53076 45.5228 4.92027C46.4946 3.53278 48.3303 2.86679 51.1377 2.86679C52.8114 2.86679 54.1612 3.03329 55.079 3.36628C56.1048 3.69928 56.8066 4.30978 57.2925 5.19777C57.5085 5.64176 57.6705 6.08576 57.7245 6.58526L53.3513 6.86275C53.2433 6.52976 53.0814 6.25226 52.8114 6.03026C52.5415 5.86376 52.2715 5.75276 52.0016 5.69726C51.7856 5.64176 51.4617 5.64177 51.1377 5.64177C49.842 5.64177 49.1941 5.97476 49.1941 6.64076C49.1941 6.97375 49.3561 7.25125 49.734 7.41775C50.1119 7.58425 50.7598 7.75074 51.7856 7.97274L53.3513 8.30574C53.7292 8.41674 53.9992 8.47224 54.1611 8.47224C54.3231 8.52774 54.5931 8.58324 54.971 8.69424C55.4029 8.80524 55.6729 8.91623 55.8888 9.02723C56.1048 9.13823 56.3207 9.24923 56.6447 9.47123C56.9686 9.69323 57.1846 9.85973 57.3465 10.0817C57.5085 10.3037 57.6165 10.5812 57.7785 10.9142C57.8864 11.2472 57.9404 11.5802 57.9404 11.9687C57.9404 12.8567 57.6705 13.6892 57.1306 14.3552C56.0508 15.7427 53.9452 16.4642 50.7598 16.4642C46.7106 16.6307 44.551 15.2432 44.2271 12.4127Z" fill="#0B0B14"/>
<path d="M75.755 9.80369C75.755 12.1902 74.8372 14.0216 73.0015 15.2981C72.2457 15.8531 71.3818 16.1861 70.518 16.4081C69.6002 16.6301 68.5744 16.7411 67.3866 16.7411C65.281 16.7411 63.4993 16.3526 62.1496 15.5201C61.5017 15.1316 61.0158 14.6876 60.5839 14.1881C60.152 13.6887 59.882 13.1337 59.6661 12.6342C59.5041 12.0792 59.3421 11.6352 59.2882 11.2467C59.2342 10.8582 59.1802 10.4697 59.1802 10.0812C59.1802 9.30419 59.2882 8.6382 59.4501 7.9722C59.6121 7.30621 59.8281 6.75121 60.152 6.30722C60.4219 5.86322 60.7459 5.47473 61.0158 5.19723C61.2858 4.91973 61.6097 4.64224 61.9337 4.42024C63.2834 3.47675 65.119 2.97725 67.4406 2.97725C68.5204 2.97725 69.4382 3.03275 70.2481 3.19925C71.0579 3.36575 71.7598 3.58774 72.2997 3.86524C72.8396 4.14274 73.3255 4.47574 73.6494 4.75323C74.0273 5.08623 74.2973 5.41923 74.6212 5.86322C75.3771 7.08421 75.755 8.3607 75.755 9.80369ZM71.1659 9.85919C71.1659 9.47069 71.1119 9.02669 71.0039 8.6382C70.8959 8.2497 70.734 7.80571 70.464 7.36171C70.1941 6.91771 69.8161 6.58472 69.3302 6.30722C68.8443 6.02972 68.1965 5.86322 67.4946 5.86322C66.3068 5.86322 65.335 6.25172 64.7411 7.02871C64.0932 7.80571 63.7693 8.7492 63.7693 9.85919C63.7693 10.3032 63.8233 10.8027 63.9853 11.2467C64.0932 11.6907 64.3092 12.1347 64.5791 12.5232C64.8491 12.9117 65.227 13.2447 65.7669 13.5222C66.2528 13.7442 66.9007 13.9107 67.5486 13.9107C68.2504 13.9107 68.8983 13.7997 69.4382 13.4667C69.9781 13.1892 70.356 12.8007 70.572 12.3567C70.788 11.9127 70.9499 11.4687 71.0579 11.0802C71.1119 10.6917 71.1659 10.2477 71.1659 9.85919Z" fill="#0B0B14"/>
<path d="M89.3612 6.30849H84.934V16.2429H80.4529V6.30849H76.0258V3.47801H89.3612V6.30849Z" fill="#0B0B14"/>
<path d="M105.129 16.2429H100.216L97.6243 11.5809H95.2487V16.2429H90.7676V3.47801H99.9458C100.972 3.47801 101.835 3.58901 102.537 3.81101C103.239 4.03301 103.779 4.477 104.265 5.254C104.697 5.97549 104.913 6.69698 104.913 7.52947C104.913 7.75147 104.913 7.97347 104.859 8.13997C104.859 8.36197 104.751 8.63947 104.643 8.97246C104.535 9.30546 104.373 9.58296 104.211 9.86045C103.995 10.138 103.725 10.36 103.347 10.6374C102.969 10.8594 102.537 11.0814 102.051 11.1369L105.129 16.2429ZM95.2487 6.36399V8.69497H98.5961C99.4059 8.69497 99.9458 8.52847 100.162 8.25097C100.324 8.02897 100.432 7.80697 100.432 7.52947C100.432 7.25198 100.378 7.08548 100.216 6.86348C99.9998 6.53048 99.5679 6.36399 98.92 6.36399H95.2487Z" fill="#0B0B14"/>
<path d="M121.488 16.2421H116.629L115.981 14.1331H111.176L110.528 16.2421H105.615L111.014 3.42174H116.089L121.488 16.2421ZM115.009 11.3582L113.552 7.02921L112.148 11.3582H115.009Z" fill="#0B0B14"/>
<path d="M136.439 16.2429H132.768L126.829 9.41646V16.2429H122.456V3.47801H126.127L132.066 10.1934V3.47801H136.439V16.2429Z" fill="#0B0B14"/>
<path d="M137.952 12.4127L142.325 12.3018C142.541 13.3007 143.459 13.7447 145.079 13.7447C145.781 13.7447 146.32 13.6337 146.698 13.4117C147.076 13.1897 147.292 12.8567 147.292 12.4682C147.292 11.9133 146.86 11.5803 145.996 11.3583L142.919 10.7478C141.407 10.4148 140.274 9.97077 139.626 9.41578C138.924 8.86078 138.6 8.02829 138.6 6.9738C138.6 6.19681 138.816 5.53081 139.248 4.92032C140.22 3.53283 142.055 2.86684 144.863 2.86684C146.536 2.86684 147.886 3.03333 148.804 3.36633C149.83 3.69933 150.532 4.30982 151.018 5.19781C151.233 5.64181 151.395 6.08581 151.449 6.5853L147.076 6.8628C146.968 6.5298 146.806 6.2523 146.536 6.03031C146.266 5.86381 145.996 5.75281 145.727 5.69731C145.511 5.64181 145.187 5.64181 144.863 5.64181C143.567 5.64181 142.919 5.97481 142.919 6.6408C142.919 6.9738 143.081 7.2513 143.459 7.41779C143.837 7.58429 144.485 7.75079 145.511 7.97279L147.076 8.30579C147.454 8.41679 147.724 8.47228 147.886 8.47228C148.048 8.52778 148.318 8.58328 148.696 8.69428C149.128 8.80528 149.398 8.91628 149.614 9.02728C149.83 9.13828 150.046 9.24928 150.37 9.47127C150.694 9.69327 150.91 9.85977 151.072 10.0818C151.233 10.3038 151.341 10.5813 151.503 10.9143C151.611 11.2473 151.665 11.5803 151.665 11.9688C151.665 12.8567 151.395 13.6892 150.856 14.3552C149.776 15.7427 147.67 16.4642 144.485 16.4642C140.436 16.6307 138.276 15.2432 137.952 12.4127Z" fill="#0B0B14"/>
<path d="M44.3906 23.1241H51.9492V24.2341H48.7098V33.7245H47.63V24.2341H44.3906V23.1241Z" fill="#0B0B14"/>
<path d="M57.2397 32.67H63.3406V33.7245H56.106V23.1241H63.1786V24.2341H57.2397V27.6751H61.9908V28.7296H57.2397V32.67Z" fill="#0B0B14"/>
<path d="M71.1114 27.2866L73.9728 23.1241H75.3226L71.7593 28.2301L75.5925 33.7245H74.2968L71.1114 29.1181L67.926 33.7245H66.6302L70.4635 28.2301L66.9002 23.1241H68.2499L71.1114 27.2866Z" fill="#0B0B14"/>
<path d="M79.8062 33.7245V23.1241H80.8859V32.67H86.4469V23.1241H87.5807V32.67H88.8764V36H87.7966V33.7245H79.8062Z" fill="#0B0B14"/>
<path d="M94.3309 32.67H100.432V33.7245H93.2511V23.1241H100.27V24.2341H94.3309V27.6751H99.136V28.7296H94.3309V32.67Z" fill="#0B0B14"/>
<path d="M104.967 33.7245V23.1241H106.1V27.8416H111.823V23.1241H112.903V33.7245H111.823V28.8961H106.1V33.7245H104.967Z" fill="#0B0B14"/>
<path d="M117.115 23.1241H124.673V24.2341H121.434V33.7245H120.354V24.2341H117.115V23.1241Z" fill="#0B0B14"/>
<path d="M128.883 23.1241H132.77C133.742 23.1241 134.498 23.4571 135.146 24.0676C135.794 24.6781 136.064 25.5106 136.064 26.4541C136.064 27.3976 135.74 28.1746 135.146 28.8406C134.498 29.5066 133.742 29.7841 132.77 29.7841H129.963V33.7245H128.883V23.1241ZM132.77 24.2341H129.963V28.7296H132.77C133.418 28.7296 133.958 28.5076 134.39 28.1191C134.768 27.7306 134.984 27.1756 134.984 26.4541C134.984 25.7326 134.768 25.2331 134.39 24.7891C133.958 24.4006 133.418 24.2341 132.77 24.2341Z" fill="#0B0B14"/>
<path d="M144.542 33.7241H140.817V23.1237H141.896V27.0642H144.542C145.514 27.0642 146.269 27.3971 146.917 28.0076C147.565 28.6181 147.835 29.4506 147.835 30.3941C147.835 31.3376 147.511 32.1146 146.917 32.7806C146.269 33.3911 145.46 33.7241 144.542 33.7241ZM141.896 32.6696H144.542C145.19 32.6696 145.73 32.4476 146.162 32.0591C146.539 31.6706 146.755 31.1156 146.755 30.3941C146.755 29.7281 146.539 29.1731 146.162 28.7291C145.784 28.3406 145.244 28.1186 144.542 28.1186H141.896V32.6696ZM150.697 33.7241H149.617V23.1237H150.697V33.7241Z" fill="#0B0B14"/>
<path d="M18.2611 2.75528C17.6133 4.03176 16.6414 4.86425 16.2095 4.64226C15.7236 4.42026 15.8856 3.19927 16.5335 1.92278C17.1813 0.646294 18.1532 -0.186199 18.5851 0.035799C19.071 0.257797 18.909 1.47879 18.2611 2.75528Z" fill="#070B0B"/>
<path d="M17.935 2.64374C17.3951 3.64273 16.6933 4.30872 16.3153 4.19772C15.9374 4.03122 16.0994 3.08773 16.6393 2.08874C17.1792 1.14525 17.881 0.423757 18.259 0.534756C18.6369 0.701254 18.4749 1.64475 17.935 2.64374Z" fill="#EB5D2F"/>
<path d="M29.6513 31.1711C28.9495 31.2266 28.1936 31.1711 27.5457 31.0046C26.7899 30.7271 24.6843 30.2276 22.9566 25.2881C21.4989 21.0702 19.2853 20.9037 19.2853 20.9037C19.7172 19.6272 19.6633 18.1842 19.1234 16.9077C18.5835 15.7422 17.6116 14.9097 17.3417 14.3547C17.0718 13.7997 16.9638 13.1337 17.0178 12.4677C17.2877 9.91476 20.3111 5.5858 19.4473 3.86532C17.8276 0.59085 7.89351 4.64231 8.9733 7.41729C9.67517 9.35977 15.776 7.52828 15.776 7.52828C15.4521 8.97127 14.6962 10.2478 13.6704 11.1913C12.7526 11.8572 11.8348 12.4677 10.755 12.8562C8.97331 13.7997 6.59776 14.7987 5.51797 17.3517C5.14004 18.2952 4.97807 19.3497 5.14004 20.3487C5.40999 22.1802 6.48978 23.8451 8.10947 24.8996C8.64937 25.2326 9.24326 25.5656 9.83714 25.8431C10.377 27.1196 11.4568 28.1186 12.8066 28.5626C12.8066 28.5626 13.4544 30.9491 8.32543 31.3376C6.48978 31.5041 3.62833 30.3941 3.62833 30.3941C1.46874 31.1156 0.334961 33.7795 0.334961 33.7795H18.8534C18.8534 33.7795 20.6891 33.0026 18.2595 31.7816C17.5577 31.4486 15.1821 30.5606 15.1281 28.2296C15.0741 27.5636 15.2901 26.8976 15.722 26.3426C16.3159 25.7321 17.2337 25.5101 18.0436 25.8431C18.8534 26.1761 19.5553 26.6756 20.0412 27.2861C21.9308 29.6171 23.9284 33.724 27.3298 33.502C30.5152 33.28 29.7053 31.1156 29.6513 31.1711Z" fill="black"/>
<path d="M29.1109 30.6715C29.1109 30.6715 27.2212 31.504 26.4654 31.171C25.7095 30.838 24.5217 30.0055 22.7941 25.6766C21.1744 21.5696 18.9608 21.2921 18.9608 21.2921C19.1768 19.9046 19.0688 18.4616 18.5289 17.1297C18.043 16.0197 17.1252 15.0762 16.0454 14.5767L17.5031 15.1317C16.8552 14.4657 16.5853 13.5777 16.7472 12.7452C17.0172 10.2477 19.9326 5.69676 19.2308 4.19828C17.881 1.14581 8.70277 5.30827 9.56661 7.30625C10.3765 9.08224 16.5313 7.30625 16.5313 7.30625C16.5313 7.30625 16.0994 9.80373 14.4797 11.3022C13.7778 11.9127 13.0219 12.4122 12.2121 12.8007C10.4844 13.6887 7.62298 14.6877 6.21924 17.3517C4.92349 19.7381 6.00329 22.6241 7.67697 24.0116C8.32484 24.5111 9.02671 24.9551 9.72857 25.3991C9.67458 25.1771 9.67458 24.9551 9.67458 24.7331V24.4001C9.67458 24.2336 9.72857 24.0671 9.72857 23.9006V23.9561C9.78256 23.6231 9.89054 23.2346 9.99852 22.9571C9.78256 24.2336 10.1065 25.5101 10.8084 26.5646C11.4023 27.3971 12.2661 28.0631 13.1299 28.4516C13.1299 28.4516 13.2919 29.617 12.644 30.283C11.9961 30.949 10.9163 31.393 8.5408 31.6705C6.81313 31.837 4.97748 31.615 3.35779 31.06C2.33199 31.393 1.63012 32.17 1.2522 33.169H18.7988C18.7988 33.169 19.7167 32.8915 17.3411 31.6705C15.8834 31.0045 15.0196 29.617 14.9656 28.1741C14.9656 26.6201 15.5055 25.8431 16.3693 25.3991C17.0712 25.0661 17.827 25.0661 18.4749 25.3991C21.8223 27.1196 22.6861 33.169 27.7611 33.5575C31.2704 33.835 29.1649 30.727 29.1109 30.6715Z" fill="#EB5C2C"/>
<path d="M23.604 30.2828C23.55 28.1183 25.3316 26.2868 27.6532 26.2868C29.9208 26.2868 31.8104 27.9518 31.8104 30.1718C31.8644 32.3362 30.0827 34.1677 27.7612 34.1677H27.7072C25.3856 34.1122 23.604 32.3918 23.604 30.2828Z" fill="black"/>
<path d="M20.3663 3.03212C19.6104 4.4196 18.6386 5.30759 18.0447 5.0856C17.4508 4.8081 17.6128 3.47611 18.3147 2.08862C19.0165 0.701137 20.0423 -0.186856 20.6362 0.0351423C21.1761 0.368139 21.0682 1.70013 20.3663 3.03212Z" fill="#070B0B"/>
<path d="M15.4514 4.5312C15.4514 4.1982 15.7754 3.9207 16.0993 3.9207C16.4772 3.9207 16.7472 4.1982 16.7472 4.5312C16.7472 4.86419 16.4772 5.14169 16.0993 5.14169C15.7214 5.14169 15.4514 4.91969 15.4514 4.5312Z" fill="#070B0B"/>
<path d="M20.2594 2.75495C19.6655 3.92044 18.8016 4.69744 18.4237 4.53094C17.9918 4.36444 18.1538 3.25445 18.7477 2.08896C19.3415 0.923471 20.2054 0.146478 20.5833 0.312976C20.9612 0.479475 20.7993 1.64496 20.2594 2.75495Z" fill="#EB5D2F"/>
<path d="M10.8638 18.2951C7.46241 17.5181 6.16666 16.4636 6.16666 16.4636L6.32863 16.1861C6.32863 16.1861 5.57277 15.7976 5.35681 16.0196C5.14085 16.2971 3.57515 19.3496 5.46479 21.847C6.38262 23.0125 7.78635 23.6785 9.29806 23.623C9.29806 23.623 8.65018 21.958 9.02811 20.7926C9.51402 19.7936 10.1079 19.0166 10.8638 18.2951Z" fill="black"/>
<path d="M9.94756 18.5174C9.35368 19.1279 8.97575 19.9049 8.81378 20.6819C8.59782 21.6254 8.65181 22.5689 9.08373 23.4013C9.08373 23.4013 6.33026 22.9574 5.25047 20.6264C4.65658 19.1834 4.76456 17.5739 5.52041 16.1864C5.95233 16.5194 6.38425 16.7969 6.87016 17.0744C8.00394 17.7404 9.94756 18.5174 9.94756 18.5174Z" fill="#FCDEBA"/>
<path d="M20.0411 12.3568L36.9938 14.5768L19.9331 13.4668L20.0411 12.3568Z" fill="black"/>
<path d="M20.9031 15.4647L34.2925 17.5737L20.9031 16.6857V15.4647Z" fill="black"/>
<path d="M22.0934 18.5172L39.586 20.9037L21.9314 19.6272L22.0934 18.5172Z" fill="black"/>
<path d="M27.9792 29.6173C27.9252 29.5618 27.8172 29.5063 27.7633 29.5063H27.2773V30.1723H27.7633C27.8712 30.1723 27.9252 30.1168 27.9792 30.0613C28.1412 29.9503 28.1412 29.7283 27.9792 29.6173Z" fill="#EA5D2C"/>
<path d="M15.6678 19.6825C15.6678 19.6825 16.0997 14.0216 14.3181 14.4101C12.6444 14.7986 13.9941 19.2385 13.9941 19.2385C13.8322 18.8501 12.1045 14.8541 14.1561 13.9661C16.5856 13.6331 15.6678 19.6825 15.6678 19.6825Z" fill="black"/>
<path d="M16.0441 20.4031C14.9643 20.6251 13.8306 20.8471 12.6968 20.9026C11.671 21.4021 11.1311 22.2901 10.4292 21.8461C9.51139 21.2911 10.2133 20.0701 10.9691 19.6816C11.293 19.5151 11.725 19.3486 12.1029 19.2376C12.1029 19.2376 10.1053 19.4596 9.67336 20.7916C9.4574 21.3466 9.78134 22.0126 10.3212 22.2346C10.8611 22.4011 11.455 22.2346 11.8329 21.7906C12.1569 21.5131 12.5348 21.2911 12.9667 21.1246C14.1005 21.0691 15.1263 20.7916 16.0441 20.4031Z" fill="black"/>
<path d="M27.6538 28.0078C26.3581 28.0078 25.3323 28.9513 25.3323 30.2278C25.3323 31.4488 26.3581 32.4477 27.6538 32.4477C29.0036 32.4477 29.9754 31.5042 29.9754 30.2278C30.0294 29.0068 28.9496 28.0078 27.6538 28.0078ZM28.0318 31.2268L27.5998 30.5053H27.2759V31.2268H26.79V29.1733H27.8158C28.0318 29.1733 28.1937 29.2288 28.3557 29.3953C28.4637 29.5618 28.5717 29.6728 28.5717 29.8393C28.5717 30.0058 28.5177 30.1723 28.4637 30.2278C28.3557 30.3388 28.2477 30.3943 28.1397 30.4498L28.6256 31.2268H28.0318Z" fill="#EB5C2C"/>
</svg>
