<svg width="18" height="19" viewBox="0 0 18 19" fill="none" xmlns="http://www.w3.org/2000/svg">
<path d="M8.99976 0.949219C4.03539 0.949219 0 4.98466 0 9.94934C0 14.9138 4.03539 18.9492 8.99976 18.9492C13.9641 18.9492 18 14.9138 18 9.94934C18 4.98466 13.9641 0.949219 8.99976 0.949219ZM11.903 10.8202H8.99976C8.51779 10.8202 8.12889 10.4311 8.12889 9.94934V5.12406C8.12889 4.64207 8.51779 4.25294 8.99976 4.25294C9.48174 4.25294 9.87111 4.64207 9.87111 5.12406V9.07822H11.903C12.385 9.07822 12.7743 9.46735 12.7743 9.94934C12.7743 10.4311 12.385 10.8202 11.903 10.8202Z" fill="#1F1F1F"/>
</svg>
